# xmcd
#
# Track frame offsets:
#	150
#	24881
#	45412
#	63652
#	77277
#	92653
#	117928
#	144916
#	175979
#	203386
#	234272
#	255044
#
# Disc length: 3595 seconds
#
# Revision: 228920742
# Processed by: cddbd v1.5.2PL0 Copyright (c) Steve Scherf et al.
# Submitted via: EZCDAudioConverter 8.5.0.1
#
DISCID=7f0e090c
DTITLE=The Velvet Underground - The Velvet Underground: 45th Anniversary Editi
DTITLE=on 5/6
DYEAR=2014
DGENRE=
TTITLE0=I'm Waiting For The Man [Live At The Matrix]
TTITLE1=What Goes On [Live At The Matrix]
TTITLE2=Some Kinda Love [Live At The Matrix]
TTITLE3=Over You [Live At The Matrix]
TTITLE4=We're Gonna Have A Real Good Time Together [Live At The Matrix]
TTITLE5=Beginning To See The Light [Live At The Matrix]
TTITLE6=Lisa Says [Live At The Matrix]
TTITLE7=Rock and Roll [Live At The Matrix]
TTITLE8=Pale Blue Eyes [Live At The Matrix]
TTITLE9=I Can't Stand It Anymore [Live At The Matrix]
TTITLE10=Venus In Furs [Live At The Matrix]
TTITLE11=There She Goes Again [Live At The Matrix]
EXTD=
EXTT0=
EXTT1=
EXTT2=
EXTT3=
EXTT4=
EXTT5=
EXTT6=
EXTT7=
EXTT8=
EXTT9=
EXTT10=
EXTT11=
PLAYORDER=
